<?xml version="1.0" encoding="utf-8"?>
<!-- Generator: Adobe Illustrator 21.1.0, SVG Export Plug-In . SVG Version: 6.00 Build 0)  -->
<svg version="1.1" xmlns="http://www.w3.org/2000/svg" xmlns:xlink="http://www.w3.org/1999/xlink" x="0px" y="0px"
	 viewBox="0 0 48 48" style="enable-background:new 0 0 48 48;" xml:space="preserve">
<style type="text/css">
	.st0{fill:#FFD4C3;stroke:#504B46;stroke-linecap:round;stroke-linejoin:round;stroke-miterlimit:10;}
	.st1{fill:#FFC258;}
	.st2{fill:#4F4B45;}
	.st3{fill:#FABFA5;}
	.st4{fill:none;stroke:#504B46;stroke-linecap:round;stroke-linejoin:round;stroke-miterlimit:10;}
	.Graphic_x0020_Style{opacity:0.15;fill:#45413C;}
	.st5{opacity:0.15;fill:#45413C;}
	.st6{fill:#DEBB7E;stroke:#45413C;stroke-linecap:round;stroke-linejoin:round;stroke-miterlimit:10;}
	.st7{fill:#F0D5A8;}
	.st8{fill:#F7E5C6;}
	.st9{fill:#DEBB7E;}
	.st10{fill:none;stroke:#45413C;stroke-linecap:round;stroke-linejoin:round;stroke-miterlimit:10;}
	.st11{fill:#FFE500;}
	.st12{fill:#EBCB00;}
	.st13{fill:none;stroke:#EBCB00;stroke-linecap:round;stroke-linejoin:round;stroke-miterlimit:10;}
	.st14{fill:#FF6242;stroke:#45413C;stroke-linecap:round;stroke-linejoin:round;stroke-miterlimit:10;}
	.st15{fill:#FFFFFF;stroke:#45413C;stroke-linecap:round;stroke-linejoin:round;stroke-miterlimit:10;}
	.st16{fill:#E5F8FF;}
	.st17{fill:#FFFFFF;}
	.st18{fill:#E8F4FA;}
	.st19{fill:#E8F4FA;stroke:#45413C;stroke-linecap:round;stroke-linejoin:round;stroke-miterlimit:10;}
	.st20{fill:#FFCCDD;}
	.st21{fill:#FFB0CA;stroke:#45413C;stroke-linecap:round;stroke-linejoin:round;stroke-miterlimit:10;}
	.st22{fill:#FF87AF;stroke:#45413C;stroke-linecap:round;stroke-linejoin:round;stroke-miterlimit:10;}
	.st23{fill:#E5F8FF;stroke:#45413C;stroke-linecap:round;stroke-linejoin:round;stroke-miterlimit:10;}
	.st24{fill:#BF8256;stroke:#45413C;stroke-linecap:round;stroke-linejoin:round;stroke-miterlimit:10;}
	.st25{fill:#9CEB60;}
	.st26{fill:#6DD627;}
	.st27{fill:#C8FFA1;}
	.st28{fill:#FFFACF;}
	.st29{fill:#FF87AF;}
	.st30{fill:#FFB0CA;}
	.st31{fill:#FF6196;}
	.st32{fill:#FFCCDD;stroke:#45413C;stroke-linecap:round;stroke-linejoin:round;stroke-miterlimit:10;}
	.st33{fill:#FF6196;stroke:#45413C;stroke-linecap:round;stroke-linejoin:round;stroke-miterlimit:10;}
	.st34{fill:#FFE5EE;}
	.st35{fill:#00B8F0;}
	.st36{fill:#4ACFFF;}
	.st37{fill:#BF8256;}
	.st38{fill:#DEA47A;}
	.st39{fill:#915E3A;}
	.st40{fill:#FFF5E3;}
	.st41{fill:#F0F0F0;}
	.st42{fill:#8CA4B8;}
	.st43{fill:#627B8C;}
	.st44{fill:#C0DCEB;}
	.st45{fill:#FFF48C;}
	.st46{fill:#FFE500;stroke:#45413C;stroke-linecap:round;stroke-linejoin:round;stroke-miterlimit:10;}
	.st47{fill:#FFAA54;}
	.st48{fill:#6DD627;stroke:#45413C;stroke-linecap:round;stroke-linejoin:round;stroke-miterlimit:10;}
	.st49{fill:#FF8A14;}
	.st50{fill:#FFCC99;}
	.st51{fill:#EBCB00;stroke:#45413C;stroke-linecap:round;stroke-linejoin:round;stroke-miterlimit:10;}
	.st52{fill:#00F5BC;stroke:#45413C;stroke-linecap:round;stroke-linejoin:round;stroke-miterlimit:10;}
	.st53{fill:#BF8DF2;stroke:#45413C;stroke-linecap:round;stroke-linejoin:round;stroke-miterlimit:10;}
	.st54{fill:#FF8A14;stroke:#45413C;stroke-linecap:round;stroke-linejoin:round;stroke-miterlimit:10;}
	.st55{fill:#4AEFF7;stroke:#45413C;stroke-linecap:round;stroke-linejoin:round;stroke-miterlimit:10;}
	.st56{fill:#FFF48C;stroke:#45413C;stroke-linecap:round;stroke-linejoin:round;stroke-miterlimit:10;}
	.st57{fill:#FF6242;}
	.st58{fill:#E04122;}
	.st59{fill:#46B000;}
	.st60{fill:none;stroke:#45413C;stroke-miterlimit:10;}
	.st61{fill:#00B8F0;stroke:#45413C;stroke-linecap:round;stroke-linejoin:round;stroke-miterlimit:10;}
	.st62{fill:#FF866E;}
	.st63{fill:#9F5AE5;stroke:#45413C;stroke-linecap:round;stroke-linejoin:round;stroke-miterlimit:10;}
	.st64{fill:#E4FFD1;}
	.st65{fill:#FFFEF2;}
	.st66{fill:#B89558;}
	.st67{fill:none;stroke:#915E3A;stroke-linecap:round;stroke-linejoin:round;stroke-miterlimit:10;}
	.st68{fill:#915E3A;stroke:#45413C;stroke-linecap:round;stroke-linejoin:round;stroke-miterlimit:10;}
	.st69{fill:#BF8DF2;}
	.st70{fill:#9F5AE5;}
	.st71{fill:#DABFF5;}
	.st72{fill:none;stroke:#45413C;stroke-linejoin:round;stroke-miterlimit:10;}
	.st73{fill:#656769;}
	.st74{fill:#87898C;}
	.st75{fill:#E0E0E0;}
	.st76{fill:#BDBEC0;}
	.st77{fill:#656769;stroke:#45413C;stroke-linecap:round;stroke-linejoin:round;stroke-miterlimit:10;}
	.st78{fill:#45413C;stroke:#45413C;stroke-linecap:round;stroke-linejoin:round;stroke-miterlimit:10;}
	.st79{fill:#FFA694;}
	.st80{fill:#E04122;stroke:#45413C;stroke-linecap:round;stroke-linejoin:round;stroke-miterlimit:10;}
	.st81{fill:#E0E0E0;stroke:#45413C;stroke-linecap:round;stroke-linejoin:round;stroke-miterlimit:10;}
	.st82{fill:#F0F0F0;stroke:#45413C;stroke-linecap:round;stroke-linejoin:round;stroke-miterlimit:10;}
	.st83{fill:#DAEDF7;}
	.st84{fill:#BDBEC0;stroke:#45413C;stroke-linecap:round;stroke-linejoin:round;stroke-miterlimit:10;}
	.st85{fill:#87898C;stroke:#45413C;stroke-linecap:round;stroke-linejoin:round;stroke-miterlimit:10;}
	.st86{fill:#00DFEB;}
	.st87{fill:#4AEFF7;}
	.st88{fill:#DAEDF7;stroke:#45413C;stroke-linecap:round;stroke-linejoin:round;stroke-miterlimit:10;}
	.st89{fill:#FFDA8F;}
	.st90{fill:#FFBE3D;}
	.st91{fill:#FFE9BD;}
	.st92{fill:#DEA47A;stroke:#45413C;stroke-linecap:round;stroke-linejoin:round;stroke-miterlimit:10;}
	.st93{fill:#45413C;}
	.st94{fill:#F0C2A1;}
	.st95{fill:none;stroke:#45413C;stroke-width:1.0064;stroke-linecap:round;stroke-linejoin:round;stroke-miterlimit:10;}
	.st96{fill:#525252;}
	.st97{fill:#EB6D00;stroke:#45413C;stroke-linecap:round;stroke-linejoin:round;stroke-miterlimit:10;}
	.st98{fill:#EB6D00;}
	.st99{fill:#E5FEFF;}
	.st100{fill:#FF866E;stroke:#45413C;stroke-linecap:round;stroke-linejoin:round;stroke-miterlimit:10;}
	.st101{fill:#627B8C;stroke:#45413C;stroke-linecap:round;stroke-linejoin:round;stroke-miterlimit:10;}
	.st102{fill:#FFFCE5;stroke:#45413C;stroke-linecap:round;stroke-linejoin:round;stroke-miterlimit:10;}
	.st103{fill:#A6FBFF;}
	.st104{fill:#D9FDFF;}
	.st105{fill:#FFFACF;stroke:#45413C;stroke-linecap:round;stroke-linejoin:round;stroke-miterlimit:10;}
	.st106{fill:#B8ECFF;}
	.st107{fill:#FFCABF;}
	.st108{fill:#E5FFF9;}
	.st109{fill:#C8FFA1;stroke:#45413C;stroke-linecap:round;stroke-linejoin:round;stroke-miterlimit:10;}
	.st110{fill:#4CF4FC;}
	.st111{fill:#F0D5A8;stroke:#45413C;stroke-linecap:round;stroke-linejoin:round;stroke-miterlimit:10;}
	.st112{fill:#FFDCD1;stroke:#45413C;stroke-linecap:round;stroke-linejoin:round;stroke-miterlimit:10;}
	.st113{fill:#80DDFF;}
	.st114{fill:#46B000;stroke:#45413C;stroke-linecap:round;stroke-linejoin:round;stroke-miterlimit:10;}
	.st115{fill:#4ACFFF;stroke:#45413C;stroke-linecap:round;stroke-linejoin:round;stroke-miterlimit:10;}
	.st116{fill:#ADC4D9;}
	.st117{fill:#BDBEC0;stroke:#45413C;stroke-width:1.0064;stroke-linecap:round;stroke-linejoin:round;stroke-miterlimit:10;}
	.st118{fill:#FFFCE5;}
	.st119{fill:#947746;}
	.st120{fill:#525252;stroke:#45413C;stroke-linecap:round;stroke-linejoin:round;stroke-miterlimit:10;}
</style>
<symbol  id="New_Symbol_14" viewBox="-6.5 -6.5 13 13">
	<path class="st0" d="M0-6c2.2,0,4.1,1.5,4.7,3.5c0,0,0,0,0,0C6.3-2.5,6.4,0,5,0v1c0,2.8-2.2,5-5,5c-2.8,0-5-2.2-5-5V0
		c-1.4,0-1.3-2.5,0.2-2.5c0,0,0,0,0,0C-4.1-4.5-2.2-6,0-6z"/>
	<g>
		<circle class="st1" cx="-1.6" cy="-0.1" r="0.1"/>
		<path class="st2" d="M-1.6,0.5c-0.3,0-0.6-0.3-0.6-0.6S-2-0.8-1.6-0.8C-1.3-0.8-1-0.5-1-0.1S-1.3,0.5-1.6,0.5L-1.6,0.5z"/>
	</g>
	<g>
		<circle class="st1" cx="1.6" cy="-0.1" r="0.1"/>
		<path class="st2" d="M1.6,0.5C1.3,0.5,1,0.2,1-0.1s0.3-0.6,0.6-0.6c0.3,0,0.6,0.3,0.6,0.6S2,0.5,1.6,0.5L1.6,0.5z"/>
	</g>
	<circle class="st3" cx="-3" cy="-1.5" r="0.5"/>
	<circle class="st3" cx="3" cy="-1.5" r="0.5"/>
	<path class="st4" d="M-1.2-3c0.8-0.5,1.7-0.5,2.5,0"/>
</symbol>
<g id="Bg">
</g>
<g id="Icons">
	<g id="XMLID_1844_">
		<path id="XMLID_2636_" class="st109" d="M42,27.1c0,0,2.9,0.7,4.5,0c-0.4,2.4-2.8,3.6-5,3.5S42,27.1,42,27.1z"/>
		<ellipse id="XMLID_2635_" class="st5" cx="26" cy="36.4" rx="19" ry="1.5"/>
		<path id="XMLID_2634_" class="st27" d="M17.5,17.6c0-4.1-3.4-7.5-7.5-7.5s-8.5,4.4-8.5,8.5s4.4,6.5,8.5,6.5c0.2,0,0.3,0,0.5,0v0
			c0,3.9,3.1,7,7,7V18.6h-0.1C17.5,18.3,17.5,17.9,17.5,17.6z"/>
		<g id="XMLID_2631_">
			<path id="XMLID_2633_" class="st64" d="M17.5,17.6c0-4.1-3.4-7.5-7.5-7.5s-8.5,4.4-8.5,8.5c0,0.5,0.1,0.9,0.2,1.4
				c0.8-3.6,4.7-7,8.3-7c4.1,0,7.5,3.4,7.5,7.5v-1.8h-0.1C17.5,18.3,17.5,17.9,17.5,17.6z"/>
			<path id="XMLID_2632_" class="st64" d="M17.5,21.4v-1C17.5,20.8,17.5,21.1,17.5,21.4L17.5,21.4z"/>
		</g>
		<path id="XMLID_2630_" class="st10" d="M17.5,17.6c0-4.1-3.4-7.5-7.5-7.5s-8.5,4.4-8.5,8.5s4.4,6.5,8.5,6.5c0.2,0,0.3,0,0.5,0v0
			c0,3.9,3.1,7,7,7V18.6h-0.1C17.5,18.3,17.5,17.9,17.5,17.6z"/>
		<path id="XMLID_2629_" class="st51" d="M41.6,31.4c0.3-1.5,0.5-3.2,0.4-4.8c-0.4-7.5-5.9-13.6-12.4-13.9
			c-7.4-0.4-13.6,6.5-13.6,15c0,1.3,0.1,2.6,0.4,3.8c0.1,0.4,0.4,0.8,0.8,0.8l1.6,0.4c6.7,1.6,13.6,1.6,20.3,0l1.6-0.4
			C41.2,32.1,41.5,31.8,41.6,31.4z"/>
		<path id="XMLID_2628_" class="st59" d="M42,28.2c0-0.5,0-1.1,0-1.6c-0.4-7.5-5.9-13.6-12.4-13.9c-7.4-0.4-13.6,6.5-13.6,15
			c0,0.1,0,0.1,0,0.2c2.2,1.2,6.4,2.8,13.4,2.8C35.6,30.6,39.6,29.3,42,28.2z"/>
		<path id="XMLID_2627_" class="st26" d="M16.3,27.9c1.3-6.9,6.8-12,13.2-11.7c6,0.3,11,5.4,12.2,12.1c0.1,0,0.2-0.1,0.2-0.1
			c0-0.5,0-1.1,0-1.6c-0.4-7.5-5.9-13.6-12.4-13.9c-7.4-0.4-13.6,6.5-13.6,15c0,0.1,0,0.1,0,0.2C16.1,27.8,16.2,27.9,16.3,27.9z"/>
		<path id="XMLID_2626_" class="st10" d="M42,28.2c0-0.5,0-1.1,0-1.6c-0.4-7.5-5.9-13.6-12.4-13.9c-7.4-0.4-13.6,6.5-13.6,15
			c0,0.1,0,0.1,0,0.2c2.2,1.2,6.4,2.8,13.4,2.8C35.6,30.6,39.6,29.3,42,28.2z"/>
		<path id="XMLID_2625_" class="st27" d="M21.6,36.1h-6c-0.6,0-1-0.5-1-1.1l0.4-5.4c0-2.2,1.8-4,4-4l0,0c2.2,0,4,1.8,4,4l-0.4,5.6
			C22.5,35.7,22.1,36.1,21.6,36.1z"/>
		<path id="XMLID_2624_" class="st27" d="M42.4,36.1h-6c-0.5,0-1-0.4-1-0.9L35,29.6c0-2.2,1.8-4,4-4l0,0c2.2,0,4,1.8,4,4l0.4,5.4
			C43.5,35.6,43,36.1,42.4,36.1z"/>
		<path id="XMLID_1820_" class="st64" d="M15,32.8c0-2.2,1.8-4,4-4c1.8,0,3.4,1.2,3.8,2.9l0.2-2.2c0-2.2-1.8-4-4-4s-4,1.8-4,4
			L14.6,35c0,0.2,0.1,0.5,0.2,0.7L15,32.8z"/>
		<path id="XMLID_1819_" class="st64" d="M39,28.8c2.2,0,4,1.8,4,4l0.2,2.8c0.1-0.2,0.2-0.4,0.2-0.7L43,29.6c0-2.2-1.8-4-4-4
			c-2.2,0-4,1.8-4,4l0.2,2.2C35.6,30.1,37.2,28.8,39,28.8z"/>
		<path id="XMLID_1818_" class="st10" d="M21.6,36.1h-6c-0.6,0-1-0.5-1-1.1l0.4-5.4c0-2.2,1.8-4,4-4l0,0c2.2,0,4,1.8,4,4l-0.4,5.6
			C22.5,35.7,22.1,36.1,21.6,36.1z"/>
		<path id="XMLID_1817_" class="st10" d="M42.4,36.1h-6c-0.5,0-1-0.4-1-0.9L35,29.6c0-2.2,1.8-4,4-4l0,0c2.2,0,4,1.8,4,4l0.4,5.4
			C43.5,35.6,43,36.1,42.4,36.1z"/>
		<circle id="XMLID_1816_" class="st78" cx="9.6" cy="15.5" r="1.1"/>
		<circle id="XMLID_1815_" class="st25" cx="13.2" cy="19.4" r="1.3"/>
		<path id="XMLID_1814_" class="st10" d="M3.8,23.1c0,0,4,0.6,5.2-2.5"/>
		<path id="XMLID_1379_" class="st10" d="M20.9,15.8c0,0,2.3,3.8,3.6,3.9s2.7-1.9,4.5-1.9s3.8,3,4.9,2.8s4.4-3.4,4.4-3.4"/>
		<line id="XMLID_1378_" class="st10" x1="29" y1="17.8" x2="29" y2="12.6"/>
		<path id="XMLID_1373_" class="st10" d="M24.5,19.7c0,0-2.1,3.3-2.4,7.4"/>
		<path id="XMLID_1372_" class="st10" d="M33.9,20.6c0,0,1.4,2.5,1.9,6.7"/>
		<path id="XMLID_1371_" class="st10" d="M22.7,28c0,0,5.5,1.2,12.6,0.2"/>
	</g>
</g>
</svg>
