<?xml version="1.0" encoding="utf-8"?>
<!-- Generator: Adobe Illustrator 21.1.0, SVG Export Plug-In . SVG Version: 6.00 Build 0)  -->
<svg version="1.1" xmlns="http://www.w3.org/2000/svg" xmlns:xlink="http://www.w3.org/1999/xlink" x="0px" y="0px"
	 viewBox="0 0 48 48" style="enable-background:new 0 0 48 48;" xml:space="preserve">
<style type="text/css">
	.st0{fill:#FFD4C3;stroke:#504B46;stroke-linecap:round;stroke-linejoin:round;stroke-miterlimit:10;}
	.st1{fill:#FFC258;}
	.st2{fill:#4F4B45;}
	.st3{fill:#FABFA5;}
	.st4{fill:none;stroke:#504B46;stroke-linecap:round;stroke-linejoin:round;stroke-miterlimit:10;}
	.Graphic_x0020_Style{opacity:0.15;fill:#45413C;}
	.st5{opacity:0.15;fill:#45413C;}
	.st6{fill:#DEBB7E;stroke:#45413C;stroke-linecap:round;stroke-linejoin:round;stroke-miterlimit:10;}
	.st7{fill:#F0D5A8;}
	.st8{fill:#F7E5C6;}
	.st9{fill:#DEBB7E;}
	.st10{fill:none;stroke:#45413C;stroke-linecap:round;stroke-linejoin:round;stroke-miterlimit:10;}
	.st11{fill:#FFE500;}
	.st12{fill:#EBCB00;}
	.st13{fill:none;stroke:#EBCB00;stroke-linecap:round;stroke-linejoin:round;stroke-miterlimit:10;}
	.st14{fill:#FF6242;stroke:#45413C;stroke-linecap:round;stroke-linejoin:round;stroke-miterlimit:10;}
	.st15{fill:#FFFFFF;stroke:#45413C;stroke-linecap:round;stroke-linejoin:round;stroke-miterlimit:10;}
	.st16{fill:#E5F8FF;}
	.st17{fill:#FFFFFF;}
	.st18{fill:#E8F4FA;}
	.st19{fill:#E8F4FA;stroke:#45413C;stroke-linecap:round;stroke-linejoin:round;stroke-miterlimit:10;}
	.st20{fill:#FFCCDD;}
	.st21{fill:#FFB0CA;stroke:#45413C;stroke-linecap:round;stroke-linejoin:round;stroke-miterlimit:10;}
	.st22{fill:#FF87AF;stroke:#45413C;stroke-linecap:round;stroke-linejoin:round;stroke-miterlimit:10;}
	.st23{fill:#E5F8FF;stroke:#45413C;stroke-linecap:round;stroke-linejoin:round;stroke-miterlimit:10;}
	.st24{fill:#BF8256;stroke:#45413C;stroke-linecap:round;stroke-linejoin:round;stroke-miterlimit:10;}
	.st25{fill:#9CEB60;}
	.st26{fill:#6DD627;}
	.st27{fill:#C8FFA1;}
	.st28{fill:#FFFACF;}
	.st29{fill:#FF87AF;}
	.st30{fill:#FFB0CA;}
	.st31{fill:#FF6196;}
	.st32{fill:#FFCCDD;stroke:#45413C;stroke-linecap:round;stroke-linejoin:round;stroke-miterlimit:10;}
	.st33{fill:#FF6196;stroke:#45413C;stroke-linecap:round;stroke-linejoin:round;stroke-miterlimit:10;}
	.st34{fill:#FFE5EE;}
	.st35{fill:#00B8F0;}
	.st36{fill:#4ACFFF;}
	.st37{fill:#BF8256;}
	.st38{fill:#DEA47A;}
	.st39{fill:#915E3A;}
	.st40{fill:#FFF5E3;}
	.st41{fill:#F0F0F0;}
	.st42{fill:#8CA4B8;}
	.st43{fill:#627B8C;}
	.st44{fill:#C0DCEB;}
	.st45{fill:#FFF48C;}
	.st46{fill:#FFE500;stroke:#45413C;stroke-linecap:round;stroke-linejoin:round;stroke-miterlimit:10;}
	.st47{fill:#FFAA54;}
	.st48{fill:#6DD627;stroke:#45413C;stroke-linecap:round;stroke-linejoin:round;stroke-miterlimit:10;}
	.st49{fill:#FF8A14;}
	.st50{fill:#FFCC99;}
	.st51{fill:#EBCB00;stroke:#45413C;stroke-linecap:round;stroke-linejoin:round;stroke-miterlimit:10;}
	.st52{fill:#00F5BC;stroke:#45413C;stroke-linecap:round;stroke-linejoin:round;stroke-miterlimit:10;}
	.st53{fill:#BF8DF2;stroke:#45413C;stroke-linecap:round;stroke-linejoin:round;stroke-miterlimit:10;}
	.st54{fill:#FF8A14;stroke:#45413C;stroke-linecap:round;stroke-linejoin:round;stroke-miterlimit:10;}
	.st55{fill:#4AEFF7;stroke:#45413C;stroke-linecap:round;stroke-linejoin:round;stroke-miterlimit:10;}
	.st56{fill:#FFF48C;stroke:#45413C;stroke-linecap:round;stroke-linejoin:round;stroke-miterlimit:10;}
	.st57{fill:#FF6242;}
	.st58{fill:#E04122;}
	.st59{fill:#46B000;}
	.st60{fill:none;stroke:#45413C;stroke-miterlimit:10;}
	.st61{fill:#00B8F0;stroke:#45413C;stroke-linecap:round;stroke-linejoin:round;stroke-miterlimit:10;}
	.st62{fill:#FF866E;}
	.st63{fill:#9F5AE5;stroke:#45413C;stroke-linecap:round;stroke-linejoin:round;stroke-miterlimit:10;}
	.st64{fill:#E4FFD1;}
	.st65{fill:#FFFEF2;}
	.st66{fill:#B89558;}
	.st67{fill:none;stroke:#915E3A;stroke-linecap:round;stroke-linejoin:round;stroke-miterlimit:10;}
	.st68{fill:#915E3A;stroke:#45413C;stroke-linecap:round;stroke-linejoin:round;stroke-miterlimit:10;}
	.st69{fill:#BF8DF2;}
	.st70{fill:#9F5AE5;}
	.st71{fill:#DABFF5;}
	.st72{fill:none;stroke:#45413C;stroke-linejoin:round;stroke-miterlimit:10;}
	.st73{fill:#656769;}
	.st74{fill:#87898C;}
	.st75{fill:#E0E0E0;}
	.st76{fill:#BDBEC0;}
	.st77{fill:#656769;stroke:#45413C;stroke-linecap:round;stroke-linejoin:round;stroke-miterlimit:10;}
	.st78{fill:#45413C;stroke:#45413C;stroke-linecap:round;stroke-linejoin:round;stroke-miterlimit:10;}
	.st79{fill:#FFA694;}
	.st80{fill:#E04122;stroke:#45413C;stroke-linecap:round;stroke-linejoin:round;stroke-miterlimit:10;}
	.st81{fill:#E0E0E0;stroke:#45413C;stroke-linecap:round;stroke-linejoin:round;stroke-miterlimit:10;}
	.st82{fill:#F0F0F0;stroke:#45413C;stroke-linecap:round;stroke-linejoin:round;stroke-miterlimit:10;}
	.st83{fill:#DAEDF7;}
	.st84{fill:#BDBEC0;stroke:#45413C;stroke-linecap:round;stroke-linejoin:round;stroke-miterlimit:10;}
	.st85{fill:#87898C;stroke:#45413C;stroke-linecap:round;stroke-linejoin:round;stroke-miterlimit:10;}
	.st86{fill:#00DFEB;}
	.st87{fill:#4AEFF7;}
	.st88{fill:#DAEDF7;stroke:#45413C;stroke-linecap:round;stroke-linejoin:round;stroke-miterlimit:10;}
	.st89{fill:#FFDA8F;}
	.st90{fill:#FFBE3D;}
	.st91{fill:#FFE9BD;}
	.st92{fill:#DEA47A;stroke:#45413C;stroke-linecap:round;stroke-linejoin:round;stroke-miterlimit:10;}
	.st93{fill:#45413C;}
	.st94{fill:#F0C2A1;}
	.st95{fill:none;stroke:#45413C;stroke-width:1.0064;stroke-linecap:round;stroke-linejoin:round;stroke-miterlimit:10;}
	.st96{fill:#525252;}
	.st97{fill:#EB6D00;stroke:#45413C;stroke-linecap:round;stroke-linejoin:round;stroke-miterlimit:10;}
	.st98{fill:#EB6D00;}
	.st99{fill:#E5FEFF;}
	.st100{fill:#FF866E;stroke:#45413C;stroke-linecap:round;stroke-linejoin:round;stroke-miterlimit:10;}
	.st101{fill:#627B8C;stroke:#45413C;stroke-linecap:round;stroke-linejoin:round;stroke-miterlimit:10;}
	.st102{fill:#FFFCE5;stroke:#45413C;stroke-linecap:round;stroke-linejoin:round;stroke-miterlimit:10;}
	.st103{fill:#A6FBFF;}
	.st104{fill:#D9FDFF;}
	.st105{fill:#FFFACF;stroke:#45413C;stroke-linecap:round;stroke-linejoin:round;stroke-miterlimit:10;}
	.st106{fill:#B8ECFF;}
	.st107{fill:#FFCABF;}
	.st108{fill:#E5FFF9;}
	.st109{fill:#C8FFA1;stroke:#45413C;stroke-linecap:round;stroke-linejoin:round;stroke-miterlimit:10;}
	.st110{fill:#4CF4FC;}
	.st111{fill:#F0D5A8;stroke:#45413C;stroke-linecap:round;stroke-linejoin:round;stroke-miterlimit:10;}
	.st112{fill:#FFDCD1;stroke:#45413C;stroke-linecap:round;stroke-linejoin:round;stroke-miterlimit:10;}
	.st113{fill:#80DDFF;}
	.st114{fill:#46B000;stroke:#45413C;stroke-linecap:round;stroke-linejoin:round;stroke-miterlimit:10;}
	.st115{fill:#4ACFFF;stroke:#45413C;stroke-linecap:round;stroke-linejoin:round;stroke-miterlimit:10;}
	.st116{fill:#ADC4D9;}
	.st117{fill:#BDBEC0;stroke:#45413C;stroke-width:1.0064;stroke-linecap:round;stroke-linejoin:round;stroke-miterlimit:10;}
	.st118{fill:#FFFCE5;}
	.st119{fill:#947746;}
	.st120{fill:#525252;stroke:#45413C;stroke-linecap:round;stroke-linejoin:round;stroke-miterlimit:10;}
</style>
<symbol  id="New_Symbol_14" viewBox="-6.5 -6.5 13 13">
	<path class="st0" d="M0-6c2.2,0,4.1,1.5,4.7,3.5c0,0,0,0,0,0C6.3-2.5,6.4,0,5,0v1c0,2.8-2.2,5-5,5c-2.8,0-5-2.2-5-5V0
		c-1.4,0-1.3-2.5,0.2-2.5c0,0,0,0,0,0C-4.1-4.5-2.2-6,0-6z"/>
	<g>
		<circle class="st1" cx="-1.6" cy="-0.1" r="0.1"/>
		<path class="st2" d="M-1.6,0.5c-0.3,0-0.6-0.3-0.6-0.6S-2-0.8-1.6-0.8C-1.3-0.8-1-0.5-1-0.1S-1.3,0.5-1.6,0.5L-1.6,0.5z"/>
	</g>
	<g>
		<circle class="st1" cx="1.6" cy="-0.1" r="0.1"/>
		<path class="st2" d="M1.6,0.5C1.3,0.5,1,0.2,1-0.1s0.3-0.6,0.6-0.6c0.3,0,0.6,0.3,0.6,0.6S2,0.5,1.6,0.5L1.6,0.5z"/>
	</g>
	<circle class="st3" cx="-3" cy="-1.5" r="0.5"/>
	<circle class="st3" cx="3" cy="-1.5" r="0.5"/>
	<path class="st4" d="M-1.2-3c0.8-0.5,1.7-0.5,2.5,0"/>
</symbol>
<g id="Bg">
</g>
<g id="Icons">
	<g id="XMLID_1843_">
		<ellipse id="XMLID_1426_" class="st5" cx="21.8" cy="45.3" rx="11.5" ry="1.5"/>
		<path id="XMLID_1425_" class="st35" d="M36.7,19c-0.5-4.6-3-8.6-6.6-11.2C31.5,3,34,2.5,31.6,1.4c-2.1-0.9-6.3,2-8.3,3.6
			c-0.3-0.1-0.6-0.1-0.9-0.1c-0.6-0.1-1.2-0.1-1.7-0.1l0,0C13.4,4.8,8.3,9,7,13.7c-2.8,1.2-6.1,4.5-4.9,6.4C3.2,22,5.9,21.6,9,21.4
			c2.1,1.2,4,0.8,8.6,1.3c6.5,0.6,7.5,4.2,7.7,6c0.2,2.4-0.5,4.1-1.6,5.6c-0.6-0.9-2-2.6-4-2.6c-1.4,0-2.8,0-3.6,0
			c-0.4,0-0.6,0.3-0.5,0.7c0.6,1.6,2.3,5.3,5.1,5.3c-0.7,4,3.8,6.3,5.6,7.1c0.3,0.1,0.7-0.1,0.7-0.4c0-0.7,0.1-1.8,0.4-3.6
			c0.3-2.5-0.6-3.8-1.6-4.4C32.8,34,37.7,27,36.7,19z"/>
		<path id="XMLID_1424_" class="st36" d="M36.8,19.7c0-0.2,0-0.5-0.1-0.7c-0.5-4.6-3-8.6-6.6-11.2c0,0,0.4,2.4,0,4.1
			C31.9,12.5,36.2,16.3,36.8,19.7z"/>
		<g id="XMLID_1422_">
			<path id="XMLID_1423_" class="st36" d="M7.8,16.7c1.3-4.8,6.4-9,13.6-9l0,0c0.6,0,1.2,0,1.7,0.1c0.3,0,0.6,0.1,0.9,0.1
				c1.9-1.4,5.5-3.9,7.7-3.7c0.9-1.6,1.5-2.1-0.1-2.8c-2.1-0.9-6.3,2-8.3,3.6c-0.3-0.1-0.6-0.1-0.9-0.1c-0.6-0.1-1.2-0.1-1.7-0.1
				l0,0C13.4,4.8,8.3,9,7,13.7c-2.8,1.2-6.1,4.5-4.9,6.4c0.2,0.3,0.5,0.6,0.8,0.8C3.7,19.3,5.8,17.5,7.8,16.7z"/>
		</g>
		<path id="XMLID_1421_" class="st10" d="M36.7,19c-0.5-4.6-3-8.6-6.6-11.2C31.5,3,34,2.5,31.6,1.4c-2.1-0.9-6.3,2-8.3,3.6
			c-0.3-0.1-0.6-0.1-0.9-0.1c-0.6-0.1-1.2-0.1-1.7-0.1l0,0C13.4,4.8,8.3,9,7,13.7c-2.8,1.2-6.1,4.5-4.9,6.4C3.2,22,5.9,21.6,9,21.4
			c2.1,1.2,4,0.8,8.6,1.3c6.5,0.6,7.5,4.2,7.7,6c0.2,2.4-0.5,4.1-1.6,5.6c-0.6-0.9-2-2.6-4-2.6c-1.4,0-2.8,0-3.6,0
			c-0.4,0-0.6,0.3-0.5,0.7c0.6,1.6,2.3,5.3,5.1,5.3c-0.7,4,3.8,6.3,5.6,7.1c0.3,0.1,0.7-0.1,0.7-0.4c0-0.7,0.1-1.8,0.4-3.6
			c0.3-2.5-0.6-3.8-1.6-4.4C32.8,34,37.7,27,36.7,19z"/>
		<path id="XMLID_1420_" class="st15" d="M23.1,21.3c-4.7-1.4-10.1,0-13.5-2.5c-2.3,1.2-5.8,0.9-7.7,0.6c0,0.3,0.1,0.5,0.2,0.8
			C3.2,22,5.9,21.6,9,21.4c2.1,1.2,4,0.8,8.6,1.3c6.5,0.6,7.5,4.2,7.7,6c0.2,2.4-0.5,4.1-1.6,5.6c-0.6-0.9-2-2.6-4-2.6
			c-1.4,0-2.8,0-3.6,0c-0.4,0-0.6,0.3-0.5,0.7c0.6,1.6,2.3,5.3,5.1,5.3c-0.7,4,3.8,6.3,5.6,7.1c0.3,0.1,0.7-0.1,0.7-0.4
			c0-0.7,0.1-1.8,0.4-3.6c0.3-2.5-0.6-3.8-1.6-4.4c0.6-0.2,1.2-0.5,1.8-0.8c0.7-0.8,1.5-2.1,1.9-3.9C30.7,26.9,27.8,22.7,23.1,21.3z
			"/>
		<path id="XMLID_1380_" class="st61" d="M20.6,18.3c0,0-3.2,2.1-2.5,6c0.4,2.2,1.9,4,3.1,4.7c0.8,0.4,1.8,0,1.9-0.9
			c0.1-0.7,0.4-1.5,1-2.3c1.4-1.8,1.5-6,1.5-6"/>
		
			<ellipse id="XMLID_858_" transform="matrix(5.447540e-02 -0.9985 0.9985 5.447540e-02 -1.3513 26.0797)" class="st78" cx="13.1" cy="13.8" rx="1" ry="1"/>
		
			<ellipse id="XMLID_856_" transform="matrix(5.445090e-02 -0.9985 0.9985 5.445090e-02 -2.9484 31.3867)" class="st106" cx="15.1" cy="17.3" rx="1" ry="1"/>
		<path id="XMLID_840_" class="st15" d="M23.7,34.4c0,0-0.5,0.9-1.3,1.9"/>
		<path id="XMLID_838_" class="st86" d="M34.6,37.7c0,0,1.9-5.5,5.6-8.6c3.8-3.1,6.9-0.1,5.6,2.6C44.6,34.3,39.3,31.9,34.6,37.7z"/>
		<path id="XMLID_836_" class="st110" d="M37.2,35.3c0.8-1.2,1.8-2.5,3.1-3.5c2.5-2.1,4.7-1.4,5.5,0c0,0,0.1-0.1,0.1-0.1
			c1.2-2.7-1.8-5.7-5.6-2.6c-3.8,3.1-5.6,8.6-5.6,8.6C35.5,36.6,36.3,35.9,37.2,35.3z"/>
		<path id="XMLID_835_" class="st10" d="M34.6,37.7c0,0,1.9-5.5,5.6-8.6c3.8-3.1,6.9-0.1,5.6,2.6C44.6,34.3,39.3,31.9,34.6,37.7z"/>
		<path id="XMLID_834_" class="st86" d="M16.1,43.8c0,0-2.2-6.6-6.5-8c-3.7-1.2-6.2,2-4,4.5C8.3,43.3,12.9,40.1,16.1,43.8z"/>
		<path id="XMLID_832_" class="st110" d="M9.6,38.3c1.9,0.6,3.4,2.3,4.5,3.9c0.7,0.3,1.4,0.7,2,1.5c0,0-2.2-6.6-6.5-8
			c-3.4-1.1-5.7,1.5-4.5,3.8C5.8,38.4,7.5,37.7,9.6,38.3z"/>
		<path id="XMLID_831_" class="st10" d="M16.1,43.8c0,0-2.2-6.6-6.5-8c-3.7-1.2-6.2,2-4,4.5C8.3,43.3,12.9,40.1,16.1,43.8z"/>
		<path id="XMLID_830_" class="st86" d="M34.1,42.8c0,0,1.8-3.7,4.5-3.5c2.8,0.2,2,3.5-0.5,3C36.5,42,34.1,42.8,34.1,42.8z"/>
		<path id="XMLID_812_" class="st110" d="M38.6,40.7c0.8,0,1.3,0.4,1.5,0.7c0.5-0.9,0.1-2.1-1.5-2.2c-2.8-0.2-4.5,3.5-4.5,3.5
			s0.5-0.2,1.2-0.3C36.1,41.5,37.2,40.6,38.6,40.7z"/>
		<path id="XMLID_803_" class="st10" d="M34.1,42.8c0,0,1.8-3.7,4.5-3.5c2.8,0.2,2,3.5-0.5,3C36.5,42,34.1,42.8,34.1,42.8z"/>
	</g>
</g>
</svg>
