<?xml version="1.0" encoding="UTF-8" standalone="no"?> <svg width="64" height="64" viewBox="0 0 64 64" fill="none" xmlns="http://www.w3.org/2000/svg">
<path d="M21.308 26.75L19.983 25.25C19.4283 25.7183 18.7259 25.9751 18 25.9751C17.2741 25.9751 16.5717 25.7183 16.017 25.25L14.692 26.75C15.6055 27.556 16.7818 28.0007 18 28.0007C19.2182 28.0007 20.3945 27.556 21.308 26.75V26.75Z" fill="black"/>
<path d="M14 23C15.1046 23 16 22.1046 16 21C16 19.8954 15.1046 19 14 19C12.8954 19 12 19.8954 12 21C12 22.1046 12.8954 23 14 23Z" fill="black"/>
<path d="M22 23C23.1046 23 24 22.1046 24 21C24 19.8954 23.1046 19 22 19C20.8954 19 20 19.8954 20 21C20 22.1046 20.8954 23 22 23Z" fill="black"/>
<path d="M62 27V5C61.9976 4.20508 61.6808 3.4434 61.1187 2.8813C60.5566 2.31921 59.7949 2.00237 59 2H25C24.2051 2.00237 23.4434 2.31921 22.8813 2.8813C22.3192 3.4434 22.0024 4.20508 22 5V7H13C11.6739 7 10.4021 7.52678 9.46447 8.46447C8.52678 9.40215 8 10.6739 8 12V17H7.5C6.57174 17 5.6815 17.3687 5.02513 18.0251C4.36875 18.6815 4 19.5717 4 20.5C4 21.4283 4.36875 22.3185 5.02513 22.9749C5.6815 23.6313 6.57174 24 7.5 24H8.05C8.23086 25.765 8.87697 27.4504 9.92232 28.884C10.9677 30.3177 12.3748 31.4481 14 32.16V33.17C13.3611 33.3746 12.7996 33.7688 12.39 34.3C12.3737 34.3354 12.3536 34.369 12.33 34.4L7.46 37.25C5.8017 38.2187 4.42543 39.6041 3.46768 41.2687C2.50994 42.9334 2.00398 44.8195 2 46.74V51.95C2.00295 53.1018 2.40213 54.2175 3.13051 55.1098C3.85889 56.0021 4.8721 56.6165 6 56.85V61C6 61.2652 6.10536 61.5196 6.29289 61.7071C6.48043 61.8946 6.73478 62 7 62H29C29.2652 62 29.5196 61.8946 29.7071 61.7071C29.8946 61.5196 30 61.2652 30 61V56.85C31.1279 56.6165 32.1411 56.0021 32.8695 55.1098C33.5979 54.2175 33.9971 53.1018 34 51.95V48H56V61C56 61.2652 56.1054 61.5196 56.2929 61.7071C56.4804 61.8946 56.7348 62 57 62H61C61.2652 62 61.5196 61.8946 61.7071 61.7071C61.8946 61.5196 62 61.2652 62 61V35C62 34.7348 61.8946 34.4804 61.7071 34.2929C61.5196 34.1054 61.2652 34 61 34H47.85L47.18 30H59C59.7949 29.9976 60.5566 29.6808 61.1187 29.1187C61.6808 28.5566 61.9976 27.7949 62 27V27ZM8 22H7.5C7.10218 22 6.72064 21.842 6.43934 21.5607C6.15804 21.2794 6 20.8978 6 20.5C6 20.1022 6.15804 19.7206 6.43934 19.4393C6.72064 19.158 7.10218 19 7.5 19H8V22ZM24 5C24 4.73478 24.1054 4.48043 24.2929 4.29289C24.4804 4.10536 24.7348 4 25 4H59C59.2652 4 59.5196 4.10536 59.7071 4.29289C59.8946 4.48043 60 4.73478 60 5V22H31.65C31.8783 21.5328 31.998 21.02 32 20.5C32 19.5717 31.6313 18.6815 30.9749 18.0251C30.3185 17.3687 29.4283 17 28.5 17H28V12C27.9971 10.8482 27.5979 9.73247 26.8695 8.84021C26.1411 7.94795 25.1279 7.33348 24 7.1V5ZM30 20.5C30 20.8978 29.842 21.2794 29.5607 21.5607C29.2794 21.842 28.8978 22 28.5 22H28V19H28.5C28.8978 19 29.2794 19.158 29.5607 19.4393C29.842 19.7206 30 20.1022 30 20.5ZM21.44 35.08C21.6683 35.1588 21.8672 35.3053 22.01 35.5C22.1298 35.6555 22.2105 35.8374 22.2453 36.0306C22.2802 36.2238 22.268 36.4225 22.21 36.61L21.44 39.33L19.4 37.8L21.44 35.08ZM18 36.33L16 33.67V32.8C17.32 33.0667 18.68 33.0667 20 32.8V33.67L18 36.33ZM22 33.17V32.16C23.1717 31.6465 24.2342 30.9133 25.13 30H36.82L36.15 34H23.32C22.9546 33.6194 22.5013 33.3344 22 33.17ZM10 12C10.0024 11.2051 10.3192 10.4434 10.8813 9.8813C11.4434 9.31921 12.2051 9.00237 13 9H23C23.7949 9.00237 24.5566 9.31921 25.1187 9.8813C25.6808 10.4434 25.9976 11.2051 26 12V16.22C25.6867 15.941 25.4357 15.5991 25.2634 15.2166C25.0911 14.834 25.0014 14.4195 25 14V13.24C25.0004 12.9284 24.9273 12.6211 24.7865 12.343C24.6458 12.065 24.4414 11.8241 24.19 11.64C23.9328 11.4519 23.6346 11.3276 23.3199 11.2771C23.0053 11.2267 22.6831 11.2517 22.38 11.35C19.5219 12.2 16.4781 12.2 13.62 11.35C13.3169 11.2517 12.9947 11.2267 12.6801 11.2771C12.3654 11.3276 12.0672 11.4519 11.81 11.64C11.5586 11.8241 11.3542 12.065 11.2135 12.343C11.0727 12.6211 10.9996 12.9284 11 13.24V14C10.9986 14.4195 10.9089 14.834 10.7366 15.2166C10.5643 15.5991 10.3133 15.941 10 16.22V12ZM10 23V18.58C10.8902 18.1896 11.6477 17.5488 12.1803 16.7356C12.7129 15.9225 12.9977 14.9721 13 14L13.01 13.25C16.2674 14.2367 19.7446 14.2332 23 13.24V14C23.0023 14.9721 23.2871 15.9225 23.8197 16.7356C24.3523 17.5488 25.1098 18.1896 26 18.58V23C26 25.1217 25.1571 27.1566 23.6569 28.6569C22.1566 30.1571 20.1217 31 18 31C15.8783 31 13.8434 30.1571 12.3431 28.6569C10.8429 27.1566 10 25.1217 10 23ZM13.99 35.5C14.1328 35.3053 14.3317 35.1588 14.56 35.08L16.6 37.8L14.56 39.33L13.79 36.61C13.732 36.4225 13.7198 36.2238 13.7547 36.0306C13.7895 35.8374 13.8702 35.6555 13.99 35.5V35.5ZM28 60H8V56.84C8.04 56.83 8.08 56.83 8.13 56.82L18.08 54.71L27.87 56.81C27.9121 56.8247 27.9557 56.8348 28 56.84V60ZM16 51.23C15.9985 50.9084 16.1244 50.5992 16.35 50.37C16.4648 50.253 16.6017 50.16 16.7528 50.0965C16.9039 50.0329 17.0661 50.0001 17.23 50H20V53.08L16.94 52.42C16.6703 52.3602 16.4295 52.2091 16.2582 51.9923C16.0869 51.7755 15.9957 51.5062 16 51.23V51.23ZM32 51.95C31.9976 52.7449 31.6808 53.5066 31.1187 54.0687C30.5566 54.6308 29.7949 54.9476 29 54.95C28.7641 54.9459 28.5293 54.9157 28.3 54.86L22 53.51V50H27C27.2652 50 27.5196 49.8946 27.7071 49.7071C27.8946 49.5196 28 49.2652 28 49V45H26V48H10V45H8V49C8 49.2652 8.10536 49.5196 8.29289 49.7071C8.48043 49.8946 8.73478 50 9 50H14.24C14.0799 50.3902 13.9984 50.8082 14 51.23C13.9963 52.0159 14.285 52.7752 14.81 53.36L7.7 54.86C7.47093 54.917 7.23603 54.9472 7 54.95C6.20508 54.9476 5.4434 54.6308 4.8813 54.0687C4.31921 53.5066 4.00237 52.7449 4 51.95V46.74C4.00317 45.1688 4.41626 43.6256 5.19844 42.2629C5.98063 40.9002 7.10485 39.7652 8.46 38.97L11.84 37C11.85 37.05 11.85 37.11 11.86 37.16L12.64 39.88C12.7294 40.19 12.8925 40.4739 13.1154 40.7072C13.3383 40.9405 13.6144 41.1165 13.92 41.22C14.1261 41.2904 14.3422 41.3276 14.56 41.33C14.9926 41.3291 15.4134 41.1889 15.76 40.93L18 39.25L20.24 40.93C20.5866 41.1889 21.0074 41.3291 21.44 41.33C21.6578 41.3276 21.8739 41.2904 22.08 41.22C22.3856 41.1165 22.6617 40.9405 22.8846 40.7072C23.1075 40.4739 23.2706 40.19 23.36 39.88L24.14 37.16C24.15 37.11 24.15 37.06 24.16 37.01L27.54 38.97C28.8952 39.7652 30.0194 40.9002 30.8016 42.2629C31.5837 43.6256 31.9968 45.1688 32 46.74V51.95ZM60 60H58V48H60V60ZM50.82 36H60V46H33.95C33.8292 44.2112 33.2732 42.4789 32.3304 40.9539C31.3875 39.429 30.0863 38.1575 28.54 37.25L26.41 36H33.18C33.0154 36.4518 32.9626 36.9367 33.026 37.4133C33.0895 37.89 33.2673 38.3442 33.5444 38.7371C33.8215 39.1301 34.1895 39.4503 34.6171 39.6702C35.0447 39.8901 35.5192 40.0032 36 40H48C48.4808 40.0032 48.9553 39.8901 49.3829 39.6702C49.8105 39.4503 50.1785 39.1301 50.4556 38.7371C50.7327 38.3442 50.9105 37.89 50.974 37.4133C51.0374 36.9367 50.9846 36.4518 50.82 36V36ZM48 36C48.2652 36 48.5196 36.1054 48.7071 36.2929C48.8946 36.4804 49 36.7348 49 37C49 37.2652 48.8946 37.5196 48.7071 37.7071C48.5196 37.8946 48.2652 38 48 38H36C35.7348 38 35.4804 37.8946 35.2929 37.7071C35.1054 37.5196 35 37.2652 35 37C35 36.7348 35.1054 36.4804 35.2929 36.2929C35.4804 36.1054 35.7348 36 36 36H48ZM38.18 34L38.85 30H45.15L45.82 34H38.18ZM26.65 28C27.3595 26.7728 27.8025 25.4098 27.95 24H60V27C60 27.2652 59.8946 27.5196 59.7071 27.7071C59.5196 27.8946 59.2652 28 59 28H26.65Z" fill="black"/>
<path d="M33.293 13.707L34.707 12.293L32.414 10L34.707 7.707L33.293 6.293L30.293 9.293C30.1055 9.48053 30.0002 9.73483 30.0002 10C30.0002 10.2652 30.1055 10.5195 30.293 10.707L33.293 13.707Z" fill="black"/>
<path d="M42.707 13.707L45.707 10.707C45.8945 10.5195 45.9998 10.2652 45.9998 10C45.9998 9.73483 45.8945 9.48053 45.707 9.293L42.707 6.293L41.293 7.707L43.586 10L41.293 12.293L42.707 13.707Z" fill="black"/>
<path d="M38.0309 5.75805L36.029 13.7574L37.9682 14.2427L39.9701 6.24335L38.0309 5.75805Z" fill="black"/>
<path d="M58 12H48V14H58V12Z" fill="black"/>
<path d="M50 8H48V10H50V8Z" fill="black"/>
<path d="M58 8H52V10H58V8Z" fill="black"/>
<path d="M58 16H46V18H58V16Z" fill="black"/>
<path d="M44 16H38V18H44V16Z" fill="black"/>
<path d="M36 16H34V18H36V16Z" fill="black"/>
</svg>
