<?xml version="1.0" encoding="UTF-8" standalone="no"?> <svg xmlns="http://www.w3.org/2000/svg" viewBox="0 0 64 64"><g id="Developer-2" data-name="Developer"><rect x="31" y="22" width="4" height="2"/><rect x="41" y="22" width="4" height="2"/><path d="M38,32c-1.936,0-3-.751-3-1H33c0,1.71,2.149,3,5,3s5-1.29,5-3H41C41,31.249,39.936,32,38,32Z"/><path d="M56.446,43.021,43,40.189V40H58a1,1,0,0,0,.868-1.5L55,31.734V19A16.984,16.984,0,0,0,25.062,8H5a3,3,0,0,0-3,3V53a3,3,0,0,0,3,3h9v5a1,1,0,0,0,1,1H61a1,1,0,0,0,1-1V49.87A7.024,7.024,0,0,0,56.446,43.021Zm-27.211.005a8.995,8.995,0,0,0,17.53,0L52,44.129V60H24V44.129Zm15.574-.412a7,7,0,0,1-13.618,0l1.971-.415a4.979,4.979,0,0,0,9.676,0ZM25,25.816a2.992,2.992,0,0,1-1.128-4.934,3.047,3.047,0,0,1,1.128-.7ZM22.868,32.5A1,1,0,0,0,23,32V26.968a5.006,5.006,0,0,0,2.157.944A13.026,13.026,0,0,0,33,38v0H19.724ZM38,37A11.013,11.013,0,0,1,27,26V19.748L42.815,15.1,49,19.515V26A11.013,11.013,0,0,1,38,37Zm-3,1.637a12.578,12.578,0,0,0,6,0V41a3,3,0,0,1-6,0ZM56.276,38H43v0a13.027,13.027,0,0,0,7.843-10.082A4.946,4.946,0,0,0,53,26.974V32a1,1,0,0,0,.132.5ZM51,20.183A2.95,2.95,0,0,1,53,23a2.987,2.987,0,0,1-2,2.81ZM38,4A14.978,14.978,0,0,1,53,19v.025a4.97,4.97,0,0,0-2.628-.989l-6.791-4.85a1,1,0,0,0-.863-.145l-16.935,4.98a4.97,4.97,0,0,0-2.783,1V19A15.017,15.017,0,0,1,38,4ZM22.719,10l-.5,2H9.781l-.5-2ZM5,54a1,1,0,0,1-1-1V11a1,1,0,0,1,1-1H7.22l.81,3.243A1,1,0,0,0,9,14H21.753A16.932,16.932,0,0,0,21,19V31.734L17.132,38.5A1,1,0,0,0,18,40H33v.189L19.555,43.021A7.024,7.024,0,0,0,14,49.87V54Zm11-4.13a5.014,5.014,0,0,1,3.966-4.891L22,44.55V60H16ZM60,60H54V44.55l2.035.429A5.014,5.014,0,0,1,60,49.87Z"/><path d="M12.293,20.293l-6,6a1,1,0,0,0,0,1.414l6,6,1.414-1.414L8.414,27l5.293-5.293Z"/><rect x="8.754" y="26" width="16.492" height="1.999" transform="translate(-13.319 36.937) rotate(-75.95)"/><rect x="6" y="38" width="2" height="2"/><rect x="10" y="38" width="2" height="2"/><rect x="6" y="42" width="2" height="2"/><rect x="10" y="42" width="2" height="2"/><rect x="6" y="46" width="2" height="2"/><rect x="10" y="46" width="2" height="2"/><rect x="6" y="50" width="2" height="2"/><rect x="10" y="50" width="2" height="2"/></g></svg>