<?xml version="1.0" encoding="utf-8"?>
<!-- Generator: Adobe Illustrator 21.1.0, SVG Export Plug-In . SVG Version: 6.00 Build 0)  -->
<svg version="1.1" xmlns="http://www.w3.org/2000/svg" xmlns:xlink="http://www.w3.org/1999/xlink" x="0px" y="0px"
	 viewBox="0 0 48 48" style="enable-background:new 0 0 48 48;" xml:space="preserve">
<style type="text/css">
	.st0{fill:#FFD4C3;stroke:#504B46;stroke-linecap:round;stroke-linejoin:round;stroke-miterlimit:10;}
	.st1{fill:#FFC258;}
	.st2{fill:#4F4B45;}
	.st3{fill:#FABFA5;}
	.st4{fill:none;stroke:#504B46;stroke-linecap:round;stroke-linejoin:round;stroke-miterlimit:10;}
	.Graphic_x0020_Style{opacity:0.15;fill:#45413C;}
	.st5{opacity:0.15;fill:#45413C;}
	.st6{fill:#DEBB7E;stroke:#45413C;stroke-linecap:round;stroke-linejoin:round;stroke-miterlimit:10;}
	.st7{fill:#F0D5A8;}
	.st8{fill:#F7E5C6;}
	.st9{fill:#DEBB7E;}
	.st10{fill:none;stroke:#45413C;stroke-linecap:round;stroke-linejoin:round;stroke-miterlimit:10;}
	.st11{fill:#FFE500;}
	.st12{fill:#EBCB00;}
	.st13{fill:none;stroke:#EBCB00;stroke-linecap:round;stroke-linejoin:round;stroke-miterlimit:10;}
	.st14{fill:#FF6242;stroke:#45413C;stroke-linecap:round;stroke-linejoin:round;stroke-miterlimit:10;}
	.st15{fill:#FFFFFF;stroke:#45413C;stroke-linecap:round;stroke-linejoin:round;stroke-miterlimit:10;}
	.st16{fill:#E5F8FF;}
	.st17{fill:#FFFFFF;}
	.st18{fill:#E8F4FA;}
	.st19{fill:#E8F4FA;stroke:#45413C;stroke-linecap:round;stroke-linejoin:round;stroke-miterlimit:10;}
	.st20{fill:#FFCCDD;}
	.st21{fill:#FFB0CA;stroke:#45413C;stroke-linecap:round;stroke-linejoin:round;stroke-miterlimit:10;}
	.st22{fill:#FF87AF;stroke:#45413C;stroke-linecap:round;stroke-linejoin:round;stroke-miterlimit:10;}
	.st23{fill:#E5F8FF;stroke:#45413C;stroke-linecap:round;stroke-linejoin:round;stroke-miterlimit:10;}
	.st24{fill:#BF8256;stroke:#45413C;stroke-linecap:round;stroke-linejoin:round;stroke-miterlimit:10;}
	.st25{fill:#9CEB60;}
	.st26{fill:#6DD627;}
	.st27{fill:#C8FFA1;}
	.st28{fill:#FFFACF;}
	.st29{fill:#FF87AF;}
	.st30{fill:#FFB0CA;}
	.st31{fill:#FF6196;}
	.st32{fill:#FFCCDD;stroke:#45413C;stroke-linecap:round;stroke-linejoin:round;stroke-miterlimit:10;}
	.st33{fill:#FF6196;stroke:#45413C;stroke-linecap:round;stroke-linejoin:round;stroke-miterlimit:10;}
	.st34{fill:#FFE5EE;}
	.st35{fill:#00B8F0;}
	.st36{fill:#4ACFFF;}
	.st37{fill:#BF8256;}
	.st38{fill:#DEA47A;}
	.st39{fill:#915E3A;}
	.st40{fill:#FFF5E3;}
	.st41{fill:#F0F0F0;}
	.st42{fill:#8CA4B8;}
	.st43{fill:#627B8C;}
	.st44{fill:#C0DCEB;}
	.st45{fill:#FFF48C;}
	.st46{fill:#FFE500;stroke:#45413C;stroke-linecap:round;stroke-linejoin:round;stroke-miterlimit:10;}
	.st47{fill:#FFAA54;}
	.st48{fill:#6DD627;stroke:#45413C;stroke-linecap:round;stroke-linejoin:round;stroke-miterlimit:10;}
	.st49{fill:#FF8A14;}
	.st50{fill:#FFCC99;}
	.st51{fill:#EBCB00;stroke:#45413C;stroke-linecap:round;stroke-linejoin:round;stroke-miterlimit:10;}
	.st52{fill:#00F5BC;stroke:#45413C;stroke-linecap:round;stroke-linejoin:round;stroke-miterlimit:10;}
	.st53{fill:#BF8DF2;stroke:#45413C;stroke-linecap:round;stroke-linejoin:round;stroke-miterlimit:10;}
	.st54{fill:#FF8A14;stroke:#45413C;stroke-linecap:round;stroke-linejoin:round;stroke-miterlimit:10;}
	.st55{fill:#4AEFF7;stroke:#45413C;stroke-linecap:round;stroke-linejoin:round;stroke-miterlimit:10;}
	.st56{fill:#FFF48C;stroke:#45413C;stroke-linecap:round;stroke-linejoin:round;stroke-miterlimit:10;}
	.st57{fill:#FF6242;}
	.st58{fill:#E04122;}
	.st59{fill:#46B000;}
	.st60{fill:none;stroke:#45413C;stroke-miterlimit:10;}
	.st61{fill:#00B8F0;stroke:#45413C;stroke-linecap:round;stroke-linejoin:round;stroke-miterlimit:10;}
	.st62{fill:#FF866E;}
	.st63{fill:#9F5AE5;stroke:#45413C;stroke-linecap:round;stroke-linejoin:round;stroke-miterlimit:10;}
	.st64{fill:#E4FFD1;}
	.st65{fill:#FFFEF2;}
	.st66{fill:#B89558;}
	.st67{fill:none;stroke:#915E3A;stroke-linecap:round;stroke-linejoin:round;stroke-miterlimit:10;}
	.st68{fill:#915E3A;stroke:#45413C;stroke-linecap:round;stroke-linejoin:round;stroke-miterlimit:10;}
	.st69{fill:#BF8DF2;}
	.st70{fill:#9F5AE5;}
	.st71{fill:#DABFF5;}
	.st72{fill:none;stroke:#45413C;stroke-linejoin:round;stroke-miterlimit:10;}
	.st73{fill:#656769;}
	.st74{fill:#87898C;}
	.st75{fill:#E0E0E0;}
	.st76{fill:#BDBEC0;}
	.st77{fill:#656769;stroke:#45413C;stroke-linecap:round;stroke-linejoin:round;stroke-miterlimit:10;}
	.st78{fill:#45413C;stroke:#45413C;stroke-linecap:round;stroke-linejoin:round;stroke-miterlimit:10;}
	.st79{fill:#FFA694;}
	.st80{fill:#E04122;stroke:#45413C;stroke-linecap:round;stroke-linejoin:round;stroke-miterlimit:10;}
	.st81{fill:#E0E0E0;stroke:#45413C;stroke-linecap:round;stroke-linejoin:round;stroke-miterlimit:10;}
	.st82{fill:#F0F0F0;stroke:#45413C;stroke-linecap:round;stroke-linejoin:round;stroke-miterlimit:10;}
	.st83{fill:#DAEDF7;}
	.st84{fill:#BDBEC0;stroke:#45413C;stroke-linecap:round;stroke-linejoin:round;stroke-miterlimit:10;}
	.st85{fill:#87898C;stroke:#45413C;stroke-linecap:round;stroke-linejoin:round;stroke-miterlimit:10;}
	.st86{fill:#00DFEB;}
	.st87{fill:#4AEFF7;}
	.st88{fill:#DAEDF7;stroke:#45413C;stroke-linecap:round;stroke-linejoin:round;stroke-miterlimit:10;}
	.st89{fill:#FFDA8F;}
	.st90{fill:#FFBE3D;}
	.st91{fill:#FFE9BD;}
	.st92{fill:#DEA47A;stroke:#45413C;stroke-linecap:round;stroke-linejoin:round;stroke-miterlimit:10;}
	.st93{fill:#45413C;}
	.st94{fill:#F0C2A1;}
	.st95{fill:none;stroke:#45413C;stroke-width:1.0064;stroke-linecap:round;stroke-linejoin:round;stroke-miterlimit:10;}
	.st96{fill:#525252;}
	.st97{fill:#EB6D00;stroke:#45413C;stroke-linecap:round;stroke-linejoin:round;stroke-miterlimit:10;}
	.st98{fill:#EB6D00;}
	.st99{fill:#E5FEFF;}
	.st100{fill:#FF866E;stroke:#45413C;stroke-linecap:round;stroke-linejoin:round;stroke-miterlimit:10;}
	.st101{fill:#627B8C;stroke:#45413C;stroke-linecap:round;stroke-linejoin:round;stroke-miterlimit:10;}
	.st102{fill:#FFFCE5;stroke:#45413C;stroke-linecap:round;stroke-linejoin:round;stroke-miterlimit:10;}
	.st103{fill:#A6FBFF;}
	.st104{fill:#D9FDFF;}
	.st105{fill:#FFFACF;stroke:#45413C;stroke-linecap:round;stroke-linejoin:round;stroke-miterlimit:10;}
	.st106{fill:#B8ECFF;}
	.st107{fill:#FFCABF;}
	.st108{fill:#E5FFF9;}
	.st109{fill:#C8FFA1;stroke:#45413C;stroke-linecap:round;stroke-linejoin:round;stroke-miterlimit:10;}
	.st110{fill:#4CF4FC;}
	.st111{fill:#F0D5A8;stroke:#45413C;stroke-linecap:round;stroke-linejoin:round;stroke-miterlimit:10;}
	.st112{fill:#FFDCD1;stroke:#45413C;stroke-linecap:round;stroke-linejoin:round;stroke-miterlimit:10;}
	.st113{fill:#80DDFF;}
	.st114{fill:#46B000;stroke:#45413C;stroke-linecap:round;stroke-linejoin:round;stroke-miterlimit:10;}
	.st115{fill:#4ACFFF;stroke:#45413C;stroke-linecap:round;stroke-linejoin:round;stroke-miterlimit:10;}
	.st116{fill:#ADC4D9;}
	.st117{fill:#BDBEC0;stroke:#45413C;stroke-width:1.0064;stroke-linecap:round;stroke-linejoin:round;stroke-miterlimit:10;}
	.st118{fill:#FFFCE5;}
	.st119{fill:#947746;}
	.st120{fill:#525252;stroke:#45413C;stroke-linecap:round;stroke-linejoin:round;stroke-miterlimit:10;}
</style>
<symbol  id="New_Symbol_14" viewBox="-6.5 -6.5 13 13">
	<path class="st0" d="M0-6c2.2,0,4.1,1.5,4.7,3.5c0,0,0,0,0,0C6.3-2.5,6.4,0,5,0v1c0,2.8-2.2,5-5,5c-2.8,0-5-2.2-5-5V0
		c-1.4,0-1.3-2.5,0.2-2.5c0,0,0,0,0,0C-4.1-4.5-2.2-6,0-6z"/>
	<g>
		<circle class="st1" cx="-1.6" cy="-0.1" r="0.1"/>
		<path class="st2" d="M-1.6,0.5c-0.3,0-0.6-0.3-0.6-0.6S-2-0.8-1.6-0.8C-1.3-0.8-1-0.5-1-0.1S-1.3,0.5-1.6,0.5L-1.6,0.5z"/>
	</g>
	<g>
		<circle class="st1" cx="1.6" cy="-0.1" r="0.1"/>
		<path class="st2" d="M1.6,0.5C1.3,0.5,1,0.2,1-0.1s0.3-0.6,0.6-0.6c0.3,0,0.6,0.3,0.6,0.6S2,0.5,1.6,0.5L1.6,0.5z"/>
	</g>
	<circle class="st3" cx="-3" cy="-1.5" r="0.5"/>
	<circle class="st3" cx="3" cy="-1.5" r="0.5"/>
	<path class="st4" d="M-1.2-3c0.8-0.5,1.7-0.5,2.5,0"/>
</symbol>
<g id="Bg">
</g>
<g id="Icons">
	<g id="XMLID_1840_">
		<path id="XMLID_2674_" class="st11" d="M5.9,25.6L5.9,25.6c0.7-0.1,1.4,0.4,1.6,1l0.7,1.8c0.8,2,0.8,4.3,0,6.3l0,0
			c-0.9,2.2-2.8,4-5.1,4.7l-0.1,0c-0.7,0.2-1.4,0-1.8-0.6l0,0c-0.4-0.6-0.4-1.4,0.1-1.9l1-1.1C3,35,3.5,34.2,3.9,33.3l0,0
			c0.6-1.5,0.8-3.1,0.6-4.7l-0.1-1.1C4.2,26.5,4.9,25.7,5.9,25.6z"/>
		<g id="XMLID_2671_">
			<path id="XMLID_2673_" class="st45" d="M4.5,28.6c0,0.2,0,0.3,0,0.5c0.3-0.5,0.7-0.8,1.3-0.9c0.7-0.1,1.4,0.4,1.6,1L8.2,31
				c0.3,0.6,0.4,1.2,0.5,1.9c0.2-1.5,0.1-3-0.5-4.4l-0.7-1.8c-0.3-0.7-0.9-1.1-1.6-1c-0.9,0.1-1.6,0.9-1.5,1.9L4.5,28.6z"/>
			<path id="XMLID_2672_" class="st45" d="M1.6,39.2l0.7-0.8c0.6-0.8,1.2-1.6,1.5-2.5c0.6-1.5,0.8-3.1,0.6-4.7l0-0.1
				c-0.1,0.8-0.3,1.5-0.6,2.2C3.5,34.2,3,35,2.3,35.8l-1,1.1c-0.5,0.5-0.5,1.3-0.1,1.9C1.4,38.9,1.5,39.1,1.6,39.2z"/>
		</g>
		<path id="XMLID_2670_" class="st10" d="M5.9,25.6L5.9,25.6c0.7-0.1,1.4,0.4,1.6,1l0.7,1.8c0.8,2,0.8,4.3,0,6.3l0,0
			c-0.9,2.2-2.8,4-5.1,4.7l-0.1,0c-0.7,0.2-1.4,0-1.8-0.6l0,0c-0.4-0.6-0.4-1.4,0.1-1.9l1-1.1C3,35,3.5,34.2,3.9,33.3l0,0
			c0.6-1.5,0.8-3.1,0.6-4.7l-0.1-1.1C4.2,26.5,4.9,25.7,5.9,25.6z"/>
		<line id="XMLID_2669_" class="st10" x1="5.6" y1="25.6" x2="4.9" y2="23.9"/>
		<line id="XMLID_2668_" class="st10" x1="6.6" y1="23.2" x2="3.1" y2="24.6"/>
		<path id="XMLID_2667_" class="st37" d="M19.4,43.6h8.8c8.7,0,16.4-5.9,18.5-14.4l0,0c1.3-5.4-1.3-10.9-6.3-13.3l0,0
			c-3.7-1.8-8.1-0.4-10.2,3.1l0,0c-0.5,0.9-0.2,2.1,0.7,2.6l0,0c0.9,0.6,2.1,0.2,2.6-0.7l0,0c0.9-1.7,3-2.3,4.7-1.6l0,0
			c3.5,1.5,5.4,5.4,4.4,9.1l0,0C41,35,35,39.6,28.1,39.6h-8L19.4,43.6z"/>
		<g id="XMLID_2664_">
			<path id="XMLID_2666_" class="st38" d="M20,41.8h8c6.9,0,12.9-4.6,14.6-11.3c0.3-1,0.3-2,0.2-3c0,0.3-0.1,0.6-0.2,0.8
				C41,35,35,39.6,28.1,39.6h-8l-0.7,3.9h0.4L20,41.8z"/>
			<path id="XMLID_2665_" class="st38" d="M40.4,18c3.8,1.8,6.2,5.4,6.6,9.4c0.4-4.8-2.1-9.4-6.6-11.6c-3.7-1.8-8.1-0.4-10.2,3.1
				l0,0c-0.4,0.7-0.3,1.5,0.1,2.1C32.4,17.6,36.7,16.3,40.4,18z"/>
		</g>
		<path id="XMLID_2663_" class="st10" d="M19.4,43.6h8.8c8.7,0,16.4-5.9,18.5-14.4l0,0c1.3-5.4-1.3-10.9-6.3-13.3l0,0
			c-3.7-1.8-8.1-0.4-10.2,3.1l0,0c-0.5,0.9-0.2,2.1,0.7,2.6l0,0c0.9,0.6,2.1,0.2,2.6-0.7l0,0c0.9-1.7,3-2.3,4.7-1.6l0,0
			c3.5,1.5,5.4,5.4,4.4,9.1l0,0C41,35,35,39.6,28.1,39.6h-8L19.4,43.6z"/>
		<path id="XMLID_2662_" class="st37" d="M30.7,30.2C29.1,21.9,21.9,16,13.5,16v12l-4.3-0.8c-1.6-0.3-2.9,1.2-2.4,2.7
			c0.2,0.8,0.9,1.4,1.7,1.5l5,0.8v2.4c-1,1-1.6,2.5-1.5,4.1l0.1,1h-0.8c-1.7,0-3,1.6-2.7,3.2c0.1,0.5,0.5,0.8,1,0.8
			c3.3,0,10.8,0,14.1,0c4.2,0,7.6-3.4,7.6-7.6C31.2,34,31,32.1,30.7,30.2z"/>
		<ellipse id="XMLID_2661_" class="st5" cx="20" cy="44.3" rx="18" ry="1.5"/>
		<path id="XMLID_1098_" class="st39" d="M13.5,25.8c4.5,0,8.4-2.7,10.2-6.5c-2.9-2.1-6.4-3.3-10.2-3.3V25.8z"/>
		<path id="XMLID_1097_" class="st10" d="M30.7,30.2C29.1,21.9,21.9,16,13.5,16v12l-4.3-0.8c-1.6-0.3-2.9,1.2-2.4,2.7
			c0.2,0.8,0.9,1.4,1.7,1.5l5,0.8v2.4c-1,1-1.6,2.5-1.5,4.1l0.1,1h-0.8c-1.7,0-3,1.6-2.7,3.2c0.1,0.5,0.5,0.8,1,0.8
			c3.3,0,10.8,0,14.1,0c4.2,0,7.6-3.4,7.6-7.6C31.2,34,31,32.1,30.7,30.2z"/>
		<path id="XMLID_1096_" class="st37" d="M22,8.7c-0.1,0-0.2,0-0.2,0c-0.9-3.8-4.3-6.6-8.3-6.6S6.1,5,5.2,8.8c-0.1,0-0.2,0-0.2,0
			c-1.8,0-3.3,1.5-3.3,3.3v0.7c0,1.8,1.5,3.3,3.3,3.3c0.1,0,0.2,0,0.2,0c0.9,3.8,4.3,6.6,8.3,6.6s7.4-2.8,8.3-6.6c0.1,0,0.2,0,0.2,0
			c1.8,0,3.3-1.5,3.3-3.3V12C25.3,10.2,23.8,8.7,22,8.7z"/>
		<path id="XMLID_1042_" class="st38" d="M22,8.7c-0.1,0-0.2,0-0.2,0c-0.9-3.8-4.3-6.6-8.3-6.6C9.4,2.2,6,5,5.2,8.8
			c-0.1,0-0.2,0-0.2,0c-1.8,0-3.3,1.5-3.3,3.3v0.7c0,0.4,0.1,0.7,0.2,1c0.4-1.3,1.7-2.3,3.1-2.3c0.1,0,0.2,0,0.2,0
			C6,7.7,9.4,4.9,13.5,4.9c4,0,7.4,2.8,8.3,6.6c0.1,0,0.2,0,0.2,0c1.5,0,2.7,1,3.1,2.3c0.1-0.3,0.2-0.7,0.2-1V12
			C25.3,10.2,23.8,8.7,22,8.7z"/>
		<path id="XMLID_1041_" class="st10" d="M22,8.7c-0.1,0-0.2,0-0.2,0c-0.9-3.8-4.3-6.6-8.3-6.6S6.1,5,5.2,8.8c-0.1,0-0.2,0-0.2,0
			c-1.8,0-3.3,1.5-3.3,3.3v0.7c0,1.8,1.5,3.3,3.3,3.3c0.1,0,0.2,0,0.2,0c0.9,3.8,4.3,6.6,8.3,6.6s7.4-2.8,8.3-6.6c0.1,0,0.2,0,0.2,0
			c1.8,0,3.3-1.5,3.3-3.3V12C25.3,10.2,23.8,8.7,22,8.7z"/>
		<path id="XMLID_1040_" class="st112" d="M18.1,14.6c1.1,1,1.7,2.4,1.7,4c0,0.5-0.1,0.9-0.2,1.3c-1.5,1.6-3.7,2.6-6.1,2.6
			c-2.8,0-5.2-1.3-6.8-3.3c0,0,0,0,0,0c0-0.2-0.1-0.4-0.1-0.6c0-1.5,0.7-2.9,1.7-4c-1-0.7-1.7-1.9-1.7-3.3c0-2.2,1.8-3.9,3.9-3.9
			c1,0,1.9,0.4,2.6,1c0.7-0.6,1.6-1,2.6-1c2.2,0,3.9,1.8,3.9,3.9C19.8,12.7,19.1,13.9,18.1,14.6z"/>
		
			<ellipse id="XMLID_1039_" transform="matrix(5.446588e-02 -0.9985 0.9985 5.446588e-02 4.4837 27.4946)" class="st93" cx="16.8" cy="11.4" rx="1.3" ry="1.3"/>
		
			<ellipse id="XMLID_1006_" transform="matrix(5.446588e-02 -0.9985 0.9985 5.446588e-02 -1.7256 20.9374)" class="st93" cx="10.2" cy="11.4" rx="1.3" ry="1.3"/>
		<path id="XMLID_1005_" class="st10" d="M10.8,17.9c0,0,1.1,1.3,2.6,1.3c1.6,0,2.6-1.3,2.6-1.3"/>
		<line id="XMLID_1004_" class="st10" x1="13.5" y1="27.9" x2="17" y2="28.5"/>
		<path id="XMLID_1003_" class="st10" d="M20.9,24.6l1.6,4.4c0.8,2.2-1.1,4.4-3.3,4l-5.7-0.9"/>
		<path id="XMLID_1002_" class="st10" d="M22.4,38.8c0.2-3.2-2.4-5.9-5.7-5.8c-1.3,0.1-2.4,0.6-3.2,1.5"/>
	</g>
</g>
</svg>
