<?xml version="1.0" encoding="iso-8859-1"?>
<!-- Generator: Adobe Illustrator 19.0.0, SVG Export Plug-In . SVG Version: 6.00 Build 0)  -->
<svg version="1.1" id="Layer_1" xmlns="http://www.w3.org/2000/svg" xmlns:xlink="http://www.w3.org/1999/xlink" x="0px" y="0px"
	 viewBox="0 0 502.34 502.34" style="enable-background:new 0 0 502.34 502.34;" xml:space="preserve">
<g transform="translate(1 1)">
	<path style="fill:#FFFFFF;" d="M8.66,153.808v183.547h106.264l133.313,122.687c13.525,7.728,30.913-1.932,30.913-18.355V59.136
		c0-16.423-17.389-26.083-30.913-18.355L114.925,153.808H8.66z"/>
	<path style="fill:#CCCCCC;" d="M114.925,337.355l133.313,122.687c13.525,7.728,30.913-1.932,30.913-18.355V59.136
		c0-16.423-17.389-26.083-30.913-18.355L114.925,153.808V337.355z"/>
	<path style="fill:#E2E3E5;" d="M37.642,153.808v183.547h77.283l104.332,96.604c13.525,7.728,30.913,24.151,30.913,7.728V59.136
		c0-16.423-17.389,0-30.913,7.728l-104.332,86.943H37.642z"/>
	<g>
		<path style="fill:#B6B6B6;" d="M258.864,472.6c-4.83,0-10.626-0.966-15.457-3.864c-0.966,0-0.966-0.966-1.932-0.966
			L111.06,347.015H8.66l0,0c-2.898,0-4.83-0.966-6.762-2.898S-1,340.253-1,337.355V153.808c0-5.796,3.864-9.66,9.66-9.66h102.4
			L242.442,33.053l0.966-0.966c9.66-5.796,20.287-5.796,29.947,0s15.457,15.457,15.457,27.049v383.517
			c0,11.592-5.796,21.253-15.457,27.049C268.525,471.634,263.694,472.6,258.864,472.6z M254.034,452.313
			c4.83,1.932,7.728,0.966,9.66,0c3.864-1.932,5.796-5.796,5.796-9.66V59.136c0-3.864-1.932-7.728-5.796-9.66
			c-1.932-0.966-5.796-2.898-9.66,0l-133.313,112.06c-0.966,0.966-3.864,1.932-5.796,1.932H18.321v164.226h96.604l0,0
			c2.898,0,4.83,0.966,6.762,2.898L254.034,452.313z"/>
		<path style="fill:#B6B6B6;" d="M114.925,211.77c-5.796,0-9.66-3.864-9.66-9.66v-48.302c0-5.796,3.864-9.66,9.66-9.66
			s9.66,3.864,9.66,9.66v48.302C124.585,207.906,120.721,211.77,114.925,211.77z"/>
		<path style="fill:#B6B6B6;" d="M114.925,347.015c-5.796,0-9.66-3.864-9.66-9.66v-48.302c0-5.796,3.864-9.66,9.66-9.66
			s9.66,3.864,9.66,9.66v48.302C124.585,343.151,120.721,347.015,114.925,347.015z"/>
		<path style="fill:#B6B6B6;" d="M370.925,424.298c-3.864,0-7.728-2.898-8.694-6.762c-1.932-4.83,0.966-10.626,5.796-12.559
			c68.589-23.185,113.992-86.943,113.992-159.396S436.615,109.37,368.026,85.219c-4.83-1.932-7.728-6.762-5.796-12.558
			c1.932-4.83,6.762-7.728,12.558-5.796C450.14,92.947,501.34,165.4,501.34,245.581s-51.2,152.634-127.517,177.751
			C372.857,424.298,371.891,424.298,370.925,424.298z"/>
		<path style="fill:#B6B6B6;" d="M317.792,371.166c-3.864,0-7.728-2.898-9.66-6.762c-1.932-4.83,1.932-10.626,6.762-11.592
			c47.336-13.525,80.181-57.962,80.181-106.264c0-49.268-32.845-92.74-80.181-106.264c-4.83-1.932-7.728-6.762-6.762-11.592
			c1.932-4.83,6.762-7.728,11.592-6.762c55.064,16.423,94.672,67.623,94.672,125.585s-38.642,109.162-94.672,125.585
			C319.725,371.166,318.758,371.166,317.792,371.166z"/>
	</g>
</g>
<g>
</g>
<g>
</g>
<g>
</g>
<g>
</g>
<g>
</g>
<g>
</g>
<g>
</g>
<g>
</g>
<g>
</g>
<g>
</g>
<g>
</g>
<g>
</g>
<g>
</g>
<g>
</g>
<g>
</g>
</svg>
